<?xml version="1.0"?>
<svg width="16" height="16" xmlns="http://www.w3.org/2000/svg" xmlns:svg="http://www.w3.org/2000/svg" version="1.1">
 <g class="layer">
  <title>Layer 1</title>
  <g id="svg_3">
   <path d="m7.33,1.48c-1.34,0.4 -2.79,0.53 -4.26,0.37c-0.72,-0.08 -1.46,-0.18 -1.65,-0.21l-0.35,-0.07l0,2.12c0,3.64 0.6,6.31 1.74,7.73c0.68,0.85 4.01,3.17 5.05,3.51c0.35,0.12 0.48,0.09 1.13,-0.24c1.04,-0.53 3,-1.88 3.77,-2.59c0.81,-0.75 1.25,-1.56 1.64,-3c0.48,-1.82 0.69,-3.47 0.69,-5.57l0,-1.95l-0.28,0.07c-1.8,0.48 -4.22,0.35 -6.55,-0.33c-0.1,-0.03 -0.52,0.05 -0.93,0.18m-0.32,0.74c-0.64,0.19 -1.2,0.25 -2.53,0.26c-0.94,0.01 -1.96,-0.03 -2.26,-0.08l-0.56,-0.09l0.07,1.83c0.08,1.94 0.41,4.07 0.84,5.4c0.32,0.97 0.95,1.76 2.12,2.66c1.17,0.9 3.17,2.12 3.45,2.12c0.3,0 3.02,-1.73 3.89,-2.46c0.82,-0.71 1.2,-1.31 1.53,-2.47c0.47,-1.64 0.66,-2.9 0.73,-4.98l0.07,-2.06l-0.74,0.12c-1.07,0.17 -3.35,0.03 -4.41,-0.26c-1.05,-0.29 -1.15,-0.29 -2.21,0.02m-3.69,1.37c0.14,0.19 0.6,0.78 1.02,1.3l0.76,0.96l-0.7,0.06l-0.7,0.06l2.11,2.58c1.16,1.42 2.18,2.65 2.27,2.74c0.13,0.13 0.34,-0.07 1.15,-1.14c0.54,-0.71 1.52,-1.96 2.17,-2.76l1.18,-1.46l-0.7,-0.04l-0.7,-0.04l0.94,-1.26c0.52,-0.69 0.92,-1.28 0.9,-1.3c-0.02,-0.02 -0.26,-0.01 -0.52,0.04c-0.47,0.08 -0.54,0.17 -2.35,2.77c-1.03,1.48 -1.91,2.69 -1.96,2.69c-0.05,0 -0.89,-1.12 -1.86,-2.47c-0.97,-1.36 -1.85,-2.57 -1.96,-2.69c-0.1,-0.12 -0.44,-0.25 -0.75,-0.3l-0.56,-0.08l0.26,0.34" fill="#f1ebd2" fill-rule="evenodd" id="svg_1"/>
   <path d="m7.2,0.9c-1.05,0.35 -3.84,0.43 -5.43,0.17c-0.76,-0.12 -1.18,-0.15 -1.26,-0.07c-0.23,0.21 -0.23,3.91 -0.01,5.45c0.25,1.71 0.72,3.48 1.14,4.27c0.67,1.26 3.41,3.53 5.45,4.51c0.86,0.41 0.96,0.44 1.4,0.31c0.96,-0.27 3.51,-1.92 4.69,-3.03c0.86,-0.81 1.29,-1.53 1.71,-2.94c0.65,-2.14 0.87,-3.65 0.88,-6.09c0,-1.6 -0.04,-2.29 -0.15,-2.39c-0.12,-0.11 -0.37,-0.11 -1.13,0c-1.61,0.23 -3.87,0.18 -5.04,-0.11c-1.41,-0.36 -1.42,-0.36 -2.26,-0.08m0.13,0.59c-1.34,0.4 -2.79,0.53 -4.26,0.37c-0.72,-0.08 -1.46,-0.18 -1.65,-0.21l-0.35,-0.07l0,2.12c0,3.64 0.6,6.31 1.74,7.73c0.68,0.85 4.01,3.17 5.05,3.51c0.35,0.12 0.48,0.09 1.13,-0.24c1.04,-0.53 3,-1.88 3.77,-2.59c0.81,-0.75 1.25,-1.56 1.64,-3c0.48,-1.82 0.69,-3.47 0.69,-5.57l0,-1.95l-0.28,0.07c-1.8,0.48 -4.22,0.35 -6.55,-0.33c-0.1,-0.03 -0.52,0.05 -0.93,0.18m-0.32,0.74c-0.64,0.19 -1.2,0.25 -2.53,0.26c-0.94,0.01 -1.96,-0.03 -2.26,-0.08l-0.56,-0.09l0.07,1.83c0.08,1.94 0.41,4.07 0.84,5.4c0.32,0.97 0.95,1.76 2.12,2.66c1.17,0.9 3.17,2.12 3.45,2.12c0.3,0 3.02,-1.73 3.89,-2.46c0.82,-0.71 1.2,-1.31 1.53,-2.47c0.47,-1.64 0.66,-2.9 0.73,-4.98l0.07,-2.06l-0.74,0.12c-1.07,0.17 -3.35,0.03 -4.41,-0.26c-1.05,-0.29 -1.15,-0.29 -2.21,0.02m-3.69,1.37c0.14,0.19 0.6,0.78 1.02,1.3l0.76,0.96l-0.7,0.06l-0.7,0.06l2.11,2.58c1.16,1.42 2.18,2.65 2.27,2.74c0.13,0.13 0.34,-0.07 1.15,-1.14c0.54,-0.71 1.52,-1.96 2.17,-2.76l1.18,-1.46l-0.7,-0.04l-0.7,-0.04l0.94,-1.26c0.52,-0.69 0.92,-1.28 0.9,-1.3c-0.02,-0.02 -0.26,-0.01 -0.52,0.04c-0.47,0.08 -0.54,0.17 -2.35,2.77c-1.03,1.48 -1.91,2.69 -1.96,2.69c-0.05,0 -0.89,-1.12 -1.86,-2.47c-0.97,-1.36 -1.85,-2.57 -1.96,-2.69c-0.1,-0.12 -0.44,-0.25 -0.75,-0.3l-0.56,-0.08l0.26,0.34" fill="#374b1d" fill-rule="evenodd" id="svg_2"/>
  </g>
 </g>
</svg>