<?xml version="1.0"?>
<svg width="48" height="48" xmlns="http://www.w3.org/2000/svg" xmlns:svg="http://www.w3.org/2000/svg" version="1.1">
 <g class="layer">
  <title>Layer 1</title>
  <g id="svg_3">
   <path d="m21.95,4.01c-3.9,1.19 -8.12,1.58 -12.41,1.1c-2.1,-0.24 -4.26,-0.54 -4.8,-0.62l-1.02,-0.21l0,6.28c0,10.78 1.74,18.69 5.06,22.9c1.97,2.52 11.68,9.38 14.71,10.39c1.02,0.36 1.4,0.27 3.29,-0.71c3.03,-1.58 8.73,-5.57 10.98,-7.67c2.36,-2.22 3.63,-4.62 4.77,-8.89c1.4,-5.39 2,-10.27 2,-16.5l0,-5.78l-0.81,0.21c-5.23,1.43 -12.28,1.04 -19.07,-0.98c-0.3,-0.09 -1.51,0.15 -2.7,0.54m-0.93,2.19c-1.86,0.56 -3.49,0.74 -7.36,0.77c-2.73,0.03 -5.7,-0.09 -6.58,-0.24l-1.63,-0.27l0.2,5.42c0.23,5.75 1.2,12.06 2.44,15.99c0.93,2.87 2.76,5.21 6.17,7.88c3.4,2.67 9.22,6.28 10.05,6.28c0.87,0 8.79,-5.12 11.32,-7.28c2.39,-2.1 3.49,-3.87 4.46,-7.31c1.37,-4.85 1.93,-8.59 2.13,-14.74l0.2,-6.1l-2.16,0.36c-3.12,0.51 -9.75,0.09 -12.84,-0.77c-3.06,-0.86 -3.35,-0.86 -6.43,0.06m-10.75,4.05c0.4,0.56 1.74,2.31 2.97,3.84l2.21,2.84l-2.03,0.18l-2.03,0.18l6.15,7.64c3.37,4.2 6.35,7.85 6.62,8.11c0.37,0.39 0.99,-0.21 3.35,-3.38c1.57,-2.1 4.43,-5.81 6.32,-8.17l3.43,-4.32l-2.03,-0.12l-2.03,-0.12l2.73,-3.74c1.51,-2.04 2.67,-3.78 2.62,-3.84c-0.06,-0.06 -0.76,-0.03 -1.51,0.12c-1.37,0.24 -1.57,0.51 -6.85,8.2c-3,4.38 -5.56,7.97 -5.7,7.97c-0.14,0 -2.59,-3.32 -5.42,-7.31c-2.83,-4.02 -5.39,-7.61 -5.7,-7.97c-0.3,-0.36 -1.27,-0.74 -2.19,-0.89l-1.63,-0.24l0.76,1.01" fill="#f1ebd2" fill-rule="evenodd" id="svg_1"/>
   <path d="m21.56,2.3c-3.06,1.04 -11.18,1.28 -15.81,0.51c-2.21,-0.36 -3.43,-0.45 -3.66,-0.21c-0.67,0.62 -0.67,11.58 -0.03,16.14c0.73,5.06 2.1,10.3 3.32,12.64c1.96,3.74 9.92,10.45 15.87,13.36c2.5,1.22 2.8,1.31 4.07,0.92c2.8,-0.8 10.22,-5.69 13.65,-8.98c2.5,-2.4 3.76,-4.53 4.99,-8.71c1.89,-6.34 2.53,-10.81 2.56,-18.03c0,-4.74 -0.11,-6.79 -0.43,-7.07c-0.34,-0.33 -1.07,-0.33 -3.29,0c-4.69,0.68 -11.27,0.54 -14.68,-0.33c-4.1,-1.07 -4.13,-1.07 -6.58,-0.24m0.37,1.74c-3.9,1.19 -8.12,1.58 -12.41,1.1c-2.1,-0.24 -4.26,-0.54 -4.8,-0.62l-1.02,-0.21l0,6.28c0,10.78 1.74,18.69 5.06,22.9c1.97,2.52 11.68,9.38 14.71,10.39c1.02,0.36 1.4,0.27 3.29,-0.71c3.03,-1.58 8.73,-5.57 10.98,-7.67c2.36,-2.22 3.63,-4.62 4.77,-8.89c1.4,-5.39 2,-10.27 2,-16.5l0,-5.78l-0.81,0.21c-5.23,1.43 -12.28,1.04 -19.07,-0.98c-0.3,-0.09 -1.51,0.15 -2.7,0.54m-0.93,2.19c-1.86,0.56 -3.49,0.74 -7.36,0.77c-2.73,0.03 -5.7,-0.09 -6.58,-0.24l-1.63,-0.27l0.2,5.42c0.23,5.75 1.2,12.06 2.44,15.99c0.93,2.87 2.76,5.21 6.17,7.88c3.4,2.67 9.22,6.28 10.05,6.28c0.87,0 8.79,-5.12 11.32,-7.28c2.39,-2.1 3.49,-3.87 4.46,-7.31c1.37,-4.85 1.93,-8.59 2.13,-14.74l0.2,-6.1l-2.16,0.36c-3.12,0.51 -9.75,0.09 -12.84,-0.77c-3.06,-0.86 -3.35,-0.86 -6.43,0.06m-10.75,4.05c0.4,0.56 1.74,2.31 2.97,3.84l2.21,2.84l-2.03,0.18l-2.03,0.18l6.15,7.64c3.37,4.2 6.35,7.85 6.62,8.11c0.37,0.39 0.99,-0.21 3.35,-3.38c1.57,-2.1 4.43,-5.81 6.32,-8.17l3.43,-4.32l-2.03,-0.12l-2.03,-0.12l2.73,-3.74c1.51,-2.04 2.67,-3.78 2.62,-3.84c-0.06,-0.06 -0.76,-0.03 -1.51,0.12c-1.37,0.24 -1.57,0.51 -6.85,8.2c-3,4.38 -5.56,7.97 -5.7,7.97c-0.14,0 -2.59,-3.32 -5.42,-7.31c-2.83,-4.02 -5.39,-7.61 -5.7,-7.97c-0.3,-0.36 -1.27,-0.74 -2.19,-0.89l-1.63,-0.24l0.76,1.01" fill="#374b1d" fill-rule="evenodd" id="svg_2"/>
  </g>
 </g>
</svg>