<svg xmlns="http://www.w3.org/2000/svg" viewBox="0 0 128 128" version="1.1"><path d="M 58.500 9.086 C 47.895 12.448, 36.403 13.493, 24.809 12.151 C 19.139 11.494, 13.262 10.689, 11.750 10.362 L 9 9.767 9 27.390 C 9 57.746, 13.753 79.916, 22.812 91.814 C 28.218 98.915, 54.576 118.213, 62.768 121.069 C 65.536 122.034, 66.603 121.793, 71.706 119.052 C 79.907 114.645, 95.450 103.405, 101.570 97.454 C 107.977 91.224, 111.499 84.429, 114.545 72.420 C 118.380 57.304, 120 43.518, 120 26.005 L 120 9.767 117.750 10.393 C 103.512 14.352, 84.337 13.326, 65.895 7.616 C 65.128 7.379, 61.800 8.041, 58.500 9.086 M 56 15.252 C 50.936 16.831, 46.518 17.303, 36 17.389 C 28.575 17.450, 20.522 17.147, 18.105 16.715 L 13.710 15.930 14.294 31.215 C 14.912 47.392, 17.542 65.108, 20.971 76.186 C 23.478 84.286, 28.471 90.881, 37.720 98.313 C 46.999 105.769, 62.817 116, 65.064 116 C 67.433 116, 88.999 101.605, 95.827 95.466 C 102.357 89.594, 105.310 84.588, 107.963 74.891 C 111.708 61.199, 113.153 50.767, 113.714 33.381 L 114.266 16.261 108.383 17.226 C 99.900 18.617, 81.833 17.489, 73.503 15.050 C 65.207 12.619, 64.420 12.628, 56 15.252 M 26.767 26.637 C 27.902 28.212, 31.543 33.100, 34.858 37.500 L 40.884 45.500 35.358 46 L 29.832 46.500 46.500 68 C 55.667 79.825, 63.741 90.095, 64.443 90.823 C 65.488 91.908, 67.127 90.198, 73.546 81.323 C 77.851 75.370, 85.569 65.010, 90.696 58.300 L 100.019 46.100 94.455 45.800 L 88.891 45.500 96.329 35 C 100.420 29.225, 103.625 24.343, 103.451 24.151 C 103.277 23.959, 101.417 24.098, 99.317 24.461 C 95.626 25.098, 95.012 25.860, 80.707 47.560 C 72.571 59.902, 65.596 69.989, 65.207 69.975 C 64.818 69.962, 58.200 60.683, 50.500 49.356 C 42.800 38.028, 35.825 27.949, 35 26.958 C 34.175 25.967, 31.521 24.845, 29.101 24.465 L 24.703 23.774 26.767 26.637" stroke="none" fill="#f1ebd2" fill-rule="evenodd"/><path d="M 57.500 4.210 C 49.176 7.092, 27.121 7.828, 14.506 5.645 C 8.490 4.604, 5.178 4.421, 4.506 5.092 C 2.723 6.869, 2.703 37.655, 4.475 50.474 C 6.448 64.735, 10.193 79.474, 13.507 86.015 C 18.838 96.533, 40.497 115.410, 56.635 123.601 C 63.413 127.042, 64.258 127.239, 67.738 126.197 C 75.356 123.914, 95.510 110.236, 104.899 100.976 C 111.738 94.231, 115.079 88.208, 118.469 76.511 C 123.626 58.714, 125.355 46.070, 125.406 25.776 C 125.439 12.467, 125.105 6.705, 124.250 5.850 C 123.315 4.915, 121.311 4.911, 115.273 5.830 C 102.537 7.769, 84.628 7.348, 75.410 4.894 C 64.212 1.913, 64.143 1.910, 57.500 4.210 M 58.500 9.086 C 47.895 12.448, 36.403 13.493, 24.809 12.151 C 19.139 11.494, 13.262 10.689, 11.750 10.362 L 9 9.767 9 27.390 C 9 57.746, 13.753 79.916, 22.812 91.814 C 28.218 98.915, 54.576 118.213, 62.768 121.069 C 65.536 122.034, 66.603 121.793, 71.706 119.052 C 79.907 114.645, 95.450 103.405, 101.570 97.454 C 107.977 91.224, 111.499 84.429, 114.545 72.420 C 118.380 57.304, 120 43.518, 120 26.005 L 120 9.767 117.750 10.393 C 103.512 14.352, 84.337 13.326, 65.895 7.616 C 65.128 7.379, 61.800 8.041, 58.500 9.086 M 56 15.252 C 50.936 16.831, 46.518 17.303, 36 17.389 C 28.575 17.450, 20.522 17.147, 18.105 16.715 L 13.710 15.930 14.294 31.215 C 14.912 47.392, 17.542 65.108, 20.971 76.186 C 23.478 84.286, 28.471 90.881, 37.720 98.313 C 46.999 105.769, 62.817 116, 65.064 116 C 67.433 116, 88.999 101.605, 95.827 95.466 C 102.357 89.594, 105.310 84.588, 107.963 74.891 C 111.708 61.199, 113.153 50.767, 113.714 33.381 L 114.266 16.261 108.383 17.226 C 99.900 18.617, 81.833 17.489, 73.503 15.050 C 65.207 12.619, 64.420 12.628, 56 15.252 M 26.767 26.637 C 27.902 28.212, 31.543 33.100, 34.858 37.500 L 40.884 45.500 35.358 46 L 29.832 46.500 46.500 68 C 55.667 79.825, 63.741 90.095, 64.443 90.823 C 65.488 91.908, 67.127 90.198, 73.546 81.323 C 77.851 75.370, 85.569 65.010, 90.696 58.300 L 100.019 46.100 94.455 45.800 L 88.891 45.500 96.329 35 C 100.420 29.225, 103.625 24.343, 103.451 24.151 C 103.277 23.959, 101.417 24.098, 99.317 24.461 C 95.626 25.098, 95.012 25.860, 80.707 47.560 C 72.571 59.902, 65.596 69.989, 65.207 69.975 C 64.818 69.962, 58.200 60.683, 50.500 49.356 C 42.800 38.028, 35.825 27.949, 35 26.958 C 34.175 25.967, 31.521 24.845, 29.101 24.465 L 24.703 23.774 26.767 26.637" stroke="none" fill="#374b1d" fill-rule="evenodd"/></svg>