<?xml version="1.0"?>
<svg xmlns="http://www.w3.org/2000/svg" version="1.1" width="24px" height="24px" viewBox="0 0 90 90">
 <g class="layer">
  <title>Layer 1</title>
  <g id="svg_1">
   <path d="m74.9,45.8c-0.9,-7.4 -4.2,-14.4 -9.3,-19.9l1.6,-2.5s0,-0.1 0.1,-0.1c1.2,-2.1 1.8,-4.5 1.8,-6.9c0,-7.9 -6.4,-14.3 -14.3,-14.3c-7.3,0 -13.3,5.5 -14.2,12.5l-1,0c-10.2,0 -19.4,4.3 -25.9,11.2l-0.3,0.3c-5.8,6.4 -9.4,14.8 -9.4,24.2c0,9.3 3.6,17.8 9.5,24.1c0.1,0.1 0.2,0.2 0.3,0.3c6.5,6.9 15.7,11.11 25.9,11.11c9.5,0 18.6,-3.81 25.2,-10.5l5.5,8.69c0.3,0.5 0.8,0.7 1.3,0.7s1,-0.3 1.3,-0.7l11.1,-17.39s0,-0.1 0.1,-0.1c1.2,-2.11 1.8,-4.5 1.8,-6.9c0,-6.71 -4.7,-12.31 -11.1,-13.81zm-15.7,20.8s0.1,0 0,0l2.1,3.2c-1.9,-0.9 -4.1,-1.7 -6.5,-2.3c1.2,-4.7 2,-10 2.1,-15.7l3,0c-1.5,2.3 -2.4,5 -2.4,7.9c-0.1,2.4 0.6,4.8 1.7,6.9zm-52,-14.8l2.5,0c0.2,1.8 0.8,3.5 1.7,5.1c0,0 0,0.1 0.1,0.1l7.8,12.31c-1.6,0.69 -3,1.39 -4.3,2.19c-4.6,-5.4 -7.5,-12.2 -7.8,-19.7zm7.8,-22.7c2.6,1.6 5.8,3 9.5,3.9c-0.2,0.9 -0.4,1.8 -0.6,2.7c-7.4,0 -13.5,5.7 -14.2,13l-2.5,0c0.3,-7.5 3.2,-14.3 7.8,-19.6zm-0.9,26.2c-0.9,-1.6 -1.4,-3.5 -1.4,-5.3c0,-6.1 5,-11.1 11.1,-11.1c6.2,-0.1 11.2,4.9 11.2,11.1c0,1.9 -0.5,3.7 -1.4,5.3l-7.9,12.3l-1.9,3l-9.7,-15.3zm23.9,10.4c-2.6,0.1 -5.2,0.3 -7.7,0.6l6,-9.3s0,-0.1 0.1,-0.1c0.9,-1.6 1.4,-3.3 1.7,-5.1l0,13.9l-0.1,0zm0,-34c-3.3,-0.1 -6.6,-0.4 -9.6,-1c2.3,-7 5.8,-11.7 9.6,-12.7l0,13.7zm0,3.1l0,13.5c-0.7,-6 -5.2,-10.9 -11.1,-12.2c0.2,-0.8 0.4,-1.6 0.6,-2.3c3.3,0.6 6.9,0.9 10.5,1zm0,34l0,13.7c-3.7,-1 -7.2,-5.7 -9.6,-12.7c3.1,-0.6 6.3,-0.9 9.6,-1zm3.2,0c3.3,0.1 6.6,0.4 9.6,1c-0.5,1.4 -1,2.6 -1.5,3.8c-2.3,4.9 -5.1,8 -8.1,8.8l0,-13.6zm0,-3.1l0,-13.9l12.5,0c-0.1,5.3 -0.8,10.4 -2,15c-3.3,-0.7 -6.8,-1 -10.5,-1.1zm11.8,-25.6c0.4,2.8 0.7,5.7 0.7,8.6l-12.5,0l0,-13.9c2.7,-0.1 5.4,-0.3 8,-0.7l3.8,6zm-11.8,-8.4l0,-10.9c0.3,0.9 0.6,1.7 1.1,2.5c0,0 0,0.1 0.1,0.1l5,7.8c-2.1,0.3 -4.1,0.4 -6.2,0.5zm-11.7,-10.5c-1.6,2.4 -3,5.4 -4.1,8.8c-3.2,-0.8 -5.9,-1.9 -8.1,-3.2c3.89,-3.7 8.8,-6.5 14.1,-7.9c-0.7,0.7 -1.3,1.4 -1.9,2.3zm-8.5,50.7l1.6,2.4c0.3,0.5 0.8,0.7 1.3,0.7s1,-0.31 1.3,-0.7l1,-1.5c1.3,3.39 2.9,6.3 4.8,8.39c0.11,0.2 0.3,0.31 0.4,0.5c-5.4,-1.39 -10.2,-4.19 -14.1,-7.89c1,-0.7 2.3,-1.3 3.7,-1.9zm32.9,-1.4c3.2,0.8 5.9,1.9 8.2,3.2c-4,3.8 -8.9,6.5 -14.2,7.9c2.4,-2.6 4.4,-6.4 6,-11.1zm8.7,-21.8l-5.8,0c-0.1,-2.8 -0.3,-5.5 -0.6,-8.1l6.9,-10.8c0.4,-0.2 0.7,-0.4 1.1,-0.61c4,4.61 6.6,10.31 7.5,16.31c-3.4,-0.1 -6.6,1.1 -9.1,3.2zm-7.8,-43.4c6.1,0 11.1,5 11.1,11.1c0,1.9 -0.5,3.7 -1.4,5.3l-2.2,3.5l-7.5,11.8l-3.5,-5.4l-6.3,-9.9c-0.9,-1.6 -1.4,-3.4 -1.4,-5.3l0,-0.2c0.1,-6 5.1,-10.9 11.2,-10.9zm26.7,59.7l-9.8,15.3l-5.3,-8.3l-4.5,-7c-0.9,-1.6 -1.4,-3.5 -1.4,-5.3c0,-6.1 5,-11.1 11.1,-11.1c6.1,0 11.1,5 11.1,11.1c0.2,1.8 -0.3,3.7 -1.2,5.3z" id="svg_2"/>
   <path d="m54.7,22.7c3.5,0 6.3,-2.8 6.3,-6.3s-2.8,-6.3 -6.3,-6.3s-6.3,2.8 -6.3,6.3s2.8,6.3 6.3,6.3zm0,-9.4c1.7,0 3.1,1.4 3.1,3.1c0,1.7 -1.4,3.1 -3.1,3.1c-1.7,0 -3.1,-1.39 -3.1,-3.1c0,-1.6 1.4,-3.1 3.1,-3.1z" id="svg_3"/>
   <path d="m30.1,50c0,-3.5 -2.8,-6.3 -6.3,-6.3s-6.3,2.8 -6.3,6.3s2.8,6.3 6.3,6.3s6.3,-2.8 6.3,-6.3zm-6.3,3.2c-1.7,0 -3.1,-1.4 -3.1,-3.1c0,-1.7 1.4,-3.1 3.1,-3.1c1.7,0 3.1,1.39 3.1,3.1c0,1.7 -1.4,3.1 -3.1,3.1z" id="svg_4"/>
   <path d="m71.7,53.5c-3.5,0 -6.3,2.8 -6.3,6.3s2.8,6.3 6.3,6.3s6.3,-2.8 6.3,-6.3c-0.1,-3.5 -2.9,-6.3 -6.3,-6.3zm0,9.4c-1.7,0 -3.1,-1.4 -3.1,-3.1c0,-1.7 1.4,-3.1 3.1,-3.1c1.7,0 3.1,1.39 3.1,3.1s-1.4,3.1 -3.1,3.1z" id="svg_5"/>
  </g>
 </g>
</svg>