<?xml version="1.0" encoding="UTF-8"?>
<!DOCTYPE svg PUBLIC "-//W3C//DTD SVG 1.1//EN" "http://www.w3.org/Graphics/SVG/1.1/DTD/svg11.dtd">
<svg xmlns="http://www.w3.org/2000/svg" version="1.1" viewBox="0 0 90 90" style="shape-rendering:geometricPrecision; text-rendering:geometricPrecision; image-rendering:optimizeQuality; fill-rule:evenodd; clip-rule:evenodd" xmlns:xlink="http://www.w3.org/1999/xlink">
<g><path style="opacity:0.989" fill="#282828" d="M 121.5,62.5 C 120.073,64.1484 119.24,66.1484 119,68.5C 118.924,61.9838 118.757,55.6504 118.5,49.5C 119.692,36.1699 119.692,22.8365 118.5,9.5C 100.165,14.2619 82.165,13.2619 64.5,6.5C 46.1387,13.2181 27.472,14.2181 8.5,9.5C 8.10146,25.8901 8.76813,42.2234 10.5,58.5C 9.00475,58.4148 8.00475,59.0815 7.5,60.5C 8.52022,62.4325 8.68688,64.4325 8,66.5C 7.72158,65.5842 7.22158,64.9175 6.5,64.5C 4.74437,58.0744 3.57771,51.4077 3,44.5C 1.25716,31.0945 1.42383,17.7611 3.5,4.5C 4.33333,4.16667 5.16667,3.83333 6,3.5C 25.709,8.06052 45.209,7.39385 64.5,1.5C 83.4675,7.36658 102.634,8.03325 122,3.5C 122.772,3.6448 123.439,3.97814 124,4.5C 126.463,23.9869 125.63,43.3202 121.5,62.5 Z"/></g>
<g><path style="opacity:0.991" fill="#1b1b1b" d="M 118.5,49.5 C 118.757,55.6504 118.924,61.9838 119,68.5C 119.24,66.1484 120.073,64.1484 121.5,62.5C 119.519,83.9563 109.519,100.456 91.5,112C 86.328,115.085 81.328,118.419 76.5,122C 72.0004,125.428 67.0004,126.762 61.5,126C 45.6603,118.16 31.4936,107.993 19,95.5C 11.8081,86.4324 7.64148,76.0991 6.5,64.5C 7.22158,64.9175 7.72158,65.5842 8,66.5C 8.68688,64.4325 8.52022,62.4325 7.5,60.5C 8.00475,59.0815 9.00475,58.4148 10.5,58.5C 12.1995,70.7676 16.3662,82.1009 23,92.5C 35.0616,104.732 48.8949,114.399 64.5,121.5C 79.615,114.524 93.115,105.191 105,93.5C 108.28,89.3419 110.613,84.6753 112,79.5C 115.108,69.6836 117.274,59.6836 118.5,49.5 Z"/></g>
<g><path style="opacity:1" fill="#bdbdbd" d="M 118.5,49.5 C 117.274,59.6836 115.108,69.6836 112,79.5C 110.613,84.6753 108.28,89.3419 105,93.5C 93.115,105.191 79.615,114.524 64.5,121.5C 48.8949,114.399 35.0616,104.732 23,92.5C 16.3662,82.1009 12.1995,70.7676 10.5,58.5C 8.76813,42.2234 8.10146,25.8901 8.5,9.5C 27.472,14.2181 46.1387,13.2181 64.5,6.5C 82.165,13.2619 100.165,14.2619 118.5,9.5C 119.692,22.8365 119.692,36.1699 118.5,49.5 Z"/></g>
<g><path style="opacity:1" fill="#c2c2c2" d="M 82.5,68.5 C 76.5301,75.9821 70.6968,83.6487 65,91.5C 53.0459,76.4239 41.2126,61.2572 29.5,46C 33.6071,45.87 36.9405,45.37 39.5,44.5C 34.8759,37.43 29.8759,30.5966 24.5,24C 27.4786,23.9932 30.4786,24.3265 33.5,25C 43.6313,40.0967 54.1313,54.93 65,69.5C 75.0293,54.9696 84.8626,40.3029 94.5,25.5C 97.2791,23.7035 100.279,23.2035 103.5,24C 98.5,31 93.5,38 88.5,45C 92.1667,45.3333 95.8333,45.6667 99.5,46C 93.4599,53.2609 87.7932,60.7609 82.5,68.5 Z"/></g>
<g><path style="opacity:0.999" fill="#2c2c2c" d="M 39.5,44.5 C 36.9405,45.37 33.6071,45.87 29.5,46C 41.2126,61.2572 53.0459,76.4239 65,91.5C 70.6968,83.6487 76.5301,75.9821 82.5,68.5C 83.4959,68.5858 84.3292,68.2524 85,67.5C 89.1834,61.1381 93.85,55.1381 99,49.5C 99.0966,55.5537 100.597,61.2204 103.5,66.5C 102.45,68.1017 103.117,68.935 105.5,69C 106.398,73.6182 105.731,78.1182 103.5,82.5C 103.624,83.1067 103.957,83.44 104.5,83.5C 102.141,88.3687 98.8072,92.5353 94.5,96C 85.1499,103.52 75.1499,110.02 64.5,115.5C 50.5396,108.596 38.0396,99.5962 27,88.5C 23.7678,84.7024 21.6012,80.369 20.5,75.5C 20.9065,72.7188 20.9065,69.7188 20.5,66.5C 21.5,66.5 22.5,66.5 23.5,66.5C 25.3684,62.0654 26.7018,57.3987 27.5,52.5C 27.0233,51.5224 26.3567,50.6891 25.5,50C 26.2387,43.1824 26.5721,36.349 26.5,29.5C 29.8333,33.8333 33.1667,38.1667 36.5,42.5C 34.2338,43.3142 31.9005,43.8142 29.5,44C 32.8168,44.4983 36.1501,44.665 39.5,44.5 Z"/></g>
<g><path style="opacity:0.999" fill="#2a2a2a" d="M 104.5,83.5 C 103.957,83.44 103.624,83.1067 103.5,82.5C 105.731,78.1182 106.398,73.6182 105.5,69C 103.117,68.935 102.45,68.1017 103.5,66.5C 100.597,61.2204 99.0966,55.5537 99,49.5C 93.85,55.1381 89.1834,61.1381 85,67.5C 84.3292,68.2524 83.4959,68.5858 82.5,68.5C 87.7932,60.7609 93.4599,53.2609 99.5,46C 95.8333,45.6667 92.1667,45.3333 88.5,45C 93.5,38 98.5,31 103.5,24C 100.279,23.2035 97.2791,23.7035 94.5,25.5C 84.8626,40.3029 75.0293,54.9696 65,69.5C 54.1313,54.93 43.6313,40.0967 33.5,25C 30.4786,24.3265 27.4786,23.9932 24.5,24C 29.8759,30.5966 34.8759,37.43 39.5,44.5C 36.1501,44.665 32.8168,44.4983 29.5,44C 31.9005,43.8142 34.2338,43.3142 36.5,42.5C 33.1667,38.1667 29.8333,33.8333 26.5,29.5C 26.5721,36.349 26.2387,43.1824 25.5,50C 26.3567,50.6891 27.0233,51.5224 27.5,52.5C 26.7018,57.3987 25.3684,62.0654 23.5,66.5C 22.5,66.5 21.5,66.5 20.5,66.5C 20.9065,69.7188 20.9065,72.7188 20.5,75.5C 15.0061,55.8642 13.0061,35.8642 14.5,15.5C 31.4085,18.8229 48.0752,17.8229 64.5,12.5C 80.4978,17.5465 96.8311,18.8798 113.5,16.5C 114.694,39.472 111.694,61.8053 104.5,83.5 Z"/></g>
</svg>
