<?xml version="1.0"?>
<svg viewBox="0 0 90 90" xmlns="http://www.w3.org/2000/svg" version="1.1">
 <g class="layer">
  <title>Layer 1</title>
  <g id="svg_1">
   <path d="m93.7,68.45c-0.49,-0.62 -1.42,-1.16 -2.56,-0.8c-5.26,1.65 -10.76,2.35 -16.33,2.07c-4.98,-0.23 -9.87,-1.27 -14.53,-3.08c-3.01,-1.18 -5.04,-4.15 -5.04,-7.39l0,-3.32c0,-3.19 -2.59,-5.8 -5.8,-5.8l-6.11,0c-2.83,0 -5.47,-1.54 -6.9,-4.01c-3.68,-6.4 -5.82,-13.64 -6.16,-20.95c-0.28,-5.58 0.42,-11.08 2.07,-16.34c0.36,-1.12 -0.19,-2.06 -0.8,-2.56c-0.39,-0.3 -0.92,-0.53 -1.51,-0.53c-0.38,0 -0.77,0.1 -1.17,0.32c-15.79,9.22 -24.79,26.3 -23.5,44.57c1.66,23.42 20.57,42.33 43.99,43.99c18.24,1.29 35.34,-7.71 44.57,-23.5c0.6,-1.02 0.28,-2.06 -0.22,-2.68zm-65.51,-23.1c-0.49,0.41 -1.23,0.34 -1.65,-0.14c-1.57,-1.85 -4.06,-2.55 -6.35,-1.76s-3.85,2.85 -3.96,5.27c-0.03,0.62 -0.56,1.12 -1.17,1.12l-0.06,0c-0.66,-0.03 -1.16,-0.58 -1.12,-1.23c0.16,-3.39 2.34,-6.3 5.55,-7.39c3.2,-1.09 6.7,-0.12 8.9,2.48c0.41,0.49 0.34,1.22 -0.14,1.65z" id="svg_2"/>
   <path d="m79.55,15.87l4.12,0l0,4.13c0,0.65 0.52,1.17 1.17,1.17c0.65,0 1.17,-0.53 1.17,-1.17l0,-4.13l4.13,0c0.65,0 1.17,-0.52 1.17,-1.17c0,-0.65 -0.53,-1.17 -1.17,-1.17l-4.13,0l0,-4.12c0,-0.65 -0.52,-1.17 -1.17,-1.17c-0.65,0 -1.17,0.52 -1.17,1.17l0,4.12l-4.12,0c-0.65,0 -1.17,0.52 -1.17,1.17s0.52,1.17 1.17,1.17z" id="svg_3"/>
   <path d="m50.35,24.31l3.73,8.27l3.74,-8.27c0.11,-0.26 0.32,-0.47 0.58,-0.58l8.27,-3.74l-8.27,-3.73c-0.26,-0.12 -0.47,-0.32 -0.58,-0.59l-3.74,-8.25l-3.73,8.25c-0.11,0.27 -0.32,0.47 -0.58,0.59l-8.27,3.73l8.27,3.74c0.26,0.11 0.47,0.32 0.58,0.58z" id="svg_4"/>
   <path d="m72.79,48.2c0.26,0.12 0.47,0.32 0.58,0.59l4.43,9.78l4.42,-9.78c0.12,-0.27 0.32,-0.47 0.59,-0.59l9.78,-4.42l-9.78,-4.43c-0.27,-0.11 -0.47,-0.32 -0.59,-0.58l-4.42,-9.79l-4.43,9.79c-0.11,0.26 -0.32,0.47 -0.58,0.58l-9.79,4.43l9.79,4.42z" id="svg_5"/>
  </g>
 </g>
</svg>