<?xml version="1.0"?>
<svg xmlns="http://www.w3.org/2000/svg" version="1.1" xml:space="preserve" viewBox="0 0 90 90" width="24px" height="24px">
 <g class="layer">
  <title>Layer 1</title>
  <g id="svg_1">
   <path d="m39.64,45.14c0,-1.31 0.04,-2.63 0.11,-3.92c-5.56,0.53 -9.34,1.66 -11.12,2.7c-0.02,0.4 -0.07,0.8 -0.07,1.22s0.04,0.82 0.07,1.22c1.77,1.03 5.56,2.17 11.12,2.7c-0.07,-1.29 -0.11,-2.61 -0.11,-3.92z" id="svg_2"/>
   <path d="m63.93,43.92c-1.77,-1.03 -5.56,-2.17 -11.12,-2.7c0.07,1.29 0.11,2.61 0.11,3.92s-0.04,2.63 -0.11,3.92c5.56,-0.53 9.34,-1.66 11.12,-2.7c0.02,-0.4 0.07,-0.8 0.07,-1.22s-0.04,-0.82 -0.07,-1.22z" id="svg_3"/>
   <path d="m41.99,41.06c-0.09,1.29 -0.13,2.63 -0.13,4.09s0.04,2.8 0.13,4.09c1.35,0.08 2.77,0.13 4.3,0.13s2.94,-0.04 4.3,-0.13c0.09,-1.29 0.13,-2.63 0.13,-4.09s-0.04,-2.8 -0.13,-4.09c-1.35,-0.08 -2.77,-0.13 -4.3,-0.13s-2.94,0.04 -4.3,0.13z" id="svg_4"/>
   <path d="m46.29,51.46c-1.37,0 -2.77,-0.04 -4.12,-0.11c0.55,5.29 1.75,8.89 2.83,10.58c0.42,0.02 0.84,0.06 1.28,0.06s0.86,-0.04 1.28,-0.06c1.08,-1.69 2.28,-5.29 2.83,-10.58c-1.35,0.06 -2.75,0.11 -4.12,0.11z" id="svg_5"/>
   <path d="m29.04,48.91c1.51,6.26 6.71,11.21 13.29,12.64c-1.2,-2.57 -1.99,-6.3 -2.39,-10.37c-4.27,-0.38 -8.19,-1.14 -10.89,-2.28z" id="svg_6"/>
   <path d="m50.25,61.56c6.58,-1.43 11.78,-6.38 13.29,-12.64c-2.7,1.14 -6.62,1.9 -10.89,2.28c-0.4,4.07 -1.2,7.8 -2.39,10.37z" id="svg_7"/>
   <path d="m63.53,41.37c-1.51,-6.26 -6.71,-11.21 -13.29,-12.64c1.2,2.57 1.99,6.3 2.39,10.37c4.27,0.38 8.19,1.14 10.89,2.28z" id="svg_8"/>
   <path d="m13.07,19.86c0,-1.31 0.04,-2.63 0.11,-3.92c-5.56,0.53 -9.34,1.66 -11.12,2.7c-0.02,0.4 -0.07,0.8 -0.07,1.22s0.04,0.82 0.07,1.22c1.77,1.03 5.56,2.17 11.12,2.7c-0.07,-1.29 -0.11,-2.61 -0.11,-3.92z" id="svg_9"/>
   <path d="m19.71,13.54c1.37,0 2.77,0.04 4.12,0.11c-0.55,-5.29 -1.75,-8.89 -2.83,-10.58c-0.42,-0.02 -0.84,-0.06 -1.28,-0.06s-0.86,0.04 -1.28,0.06c-1.08,1.69 -2.28,5.29 -2.83,10.58c1.35,-0.06 2.75,-0.11 4.12,-0.11z" id="svg_10"/>
   <path d="m26.36,19.86c0,1.31 -0.04,2.63 -0.11,3.92c5.56,-0.53 9.34,-1.66 11.12,-2.7c0.02,-0.4 0.07,-0.8 0.07,-1.22s-0.04,-0.82 -0.07,-1.22c-1.77,-1.03 -5.56,-2.17 -11.12,-2.7c0.07,1.29 0.11,2.61 0.11,3.92z" id="svg_11"/>
   <path d="m15.42,15.77c-0.09,1.29 -0.13,2.63 -0.13,4.09s0.04,2.8 0.13,4.09c1.35,0.08 2.77,0.13 4.3,0.13s2.94,-0.04 4.3,-0.13c0.09,-1.29 0.13,-2.63 0.13,-4.09s-0.04,-2.8 -0.13,-4.09c-1.35,-0.08 -2.77,-0.13 -4.3,-0.13s-2.94,0.04 -4.3,0.13z" id="svg_12"/>
   <path d="m2.46,23.63c1.51,6.26 6.71,11.21 13.29,12.64c-1.2,-2.57 -1.99,-6.3 -2.39,-10.37c-4.27,-0.38 -8.19,-1.14 -10.89,-2.28z" id="svg_13"/>
   <path d="m15.75,3.44c-6.58,1.43 -11.78,6.38 -13.29,12.64c2.7,-1.14 6.62,-1.9 10.89,-2.28c0.4,-4.07 1.2,-7.8 2.39,-10.37z" id="svg_14"/>
   <path d="m36.96,16.09c-1.51,-6.26 -6.71,-11.21 -13.29,-12.64c1.2,2.57 1.99,6.3 2.39,10.37c4.27,0.38 8.19,1.14 10.89,2.28z" id="svg_15"/>
   <path d="m48.5,34.61l0,-4.21c0,-2.32 -1.99,-4.21 -4.43,-4.21l-22.14,0c-2.44,0 -4.43,1.9 -4.43,4.21l0,4.21c0,2.32 1.99,4.21 4.43,4.21l22.14,0c2.44,0 4.43,-1.9 4.43,-4.21zm-26.57,0c-1.22,0 -2.21,-0.95 -2.21,-2.11s0.97,-2.11 2.19,-2.11l0.09,0c1.22,0 2.15,0.95 2.15,2.11s-1,2.11 -2.21,2.11zm6.64,0c-1.22,0 -2.21,-0.95 -2.21,-2.11s0.97,-2.11 2.19,-2.11l0.09,0c1.22,0 2.15,0.95 2.15,2.11s-1,2.11 -2.21,2.11zm4.43,-2.11c0,-1.16 1,-2.11 2.21,-2.11l8.86,0c1.22,0 2.21,0.95 2.21,2.11s-1,2.11 -2.21,2.11l-8.86,0c-1.22,0 -2.21,-0.95 -2.21,-2.11z" id="svg_16"/>
  </g>
 </g>
</svg>