<?xml version="1.0"?>
<svg xmlns="http://www.w3.org/2000/svg" enable-background="new 0 0 128 128" version="1.1" xml:space="preserve" width="24px" height="24px">
 <g class="layer">
  <title>Layer 1</title>
  <g id="svg_1">
   <path d="m49.88,18.37c-17.62,0 -31.96,14.3 -31.96,31.88s14.34,31.88 31.96,31.88s31.96,-14.3 31.96,-31.88s-14.34,-31.88 -31.96,-31.88zm0,60.57c-15.89,0 -28.76,-12.84 -28.76,-28.69s12.87,-28.69 28.76,-28.69s28.76,12.84 28.76,28.69s-12.87,28.69 -28.76,28.69z" id="svg_2"/>
   <path d="m49.88,13.81c0.91,0 1.64,-0.73 1.64,-1.64l0,-8.84c0,-0.91 -0.73,-1.64 -1.64,-1.64s-1.64,0.73 -1.64,1.64l0,8.84c0.09,0.91 0.73,1.64 1.64,1.64z" id="svg_3"/>
   <path d="m81.92,16l-6.21,6.19c-0.64,0.64 -0.64,1.64 0,2.28c0.27,0.27 0.73,0.46 1.1,0.46s0.82,-0.18 1.1,-0.46l6.21,-6.19c0.64,-0.64 0.64,-1.64 0,-2.28c-0.55,-0.64 -1.55,-0.64 -2.19,0z" id="svg_4"/>
   <path d="m96.81,48.7l-8.86,0c-0.91,0 -1.64,0.73 -1.64,1.64s0.73,1.64 1.64,1.64l8.86,0c0.91,0 1.64,-0.73 1.64,-1.64s-0.73,-1.64 -1.64,-1.64z" id="svg_5"/>
   <path d="m78,76.03c-0.64,-0.64 -1.64,-0.64 -2.28,0c-0.64,0.64 -0.64,1.64 0,2.28l6.21,6.19c0.27,0.27 0.73,0.46 1.1,0.46s0.82,-0.18 1.1,-0.46c0.64,-0.64 0.64,-1.64 0,-2.28l-6.12,-6.19z" id="svg_6"/>
   <path d="m49.88,86.69c-0.91,0 -1.64,0.73 -1.64,1.64l0,8.84c0,0.91 0.73,1.64 1.64,1.64s1.64,-0.73 1.64,-1.64l0,-8.84c0,-0.91 -0.73,-1.64 -1.64,-1.64z" id="svg_7"/>
   <path d="m21.75,76.03l-6.21,6.19c-0.64,0.64 -0.64,1.64 0,2.28c0.27,0.27 0.73,0.46 1.1,0.46s0.82,-0.18 1.1,-0.46l6.21,-6.19c0.64,-0.64 0.64,-1.64 0,-2.28c-0.55,-0.64 -1.55,-0.64 -2.19,0z" id="svg_8"/>
   <path d="m11.8,48.7l-8.86,0c-0.91,0 -1.64,0.73 -1.64,1.64s0.73,1.64 1.64,1.64l8.86,0c0.91,0 1.64,-0.73 1.64,-1.64s-0.82,-1.64 -1.64,-1.64z" id="svg_9"/>
   <path d="m21.75,24.47c0.27,0.27 0.73,0.46 1.1,0.46s0.82,-0.18 1.1,-0.46c0.64,-0.64 0.64,-1.64 0,-2.28l-6.21,-6.19c-0.64,-0.64 -1.64,-0.64 -2.28,0c-0.64,0.64 -0.64,1.64 0,2.28l6.3,6.19z" id="svg_10"/>
   <path d="m40.29,27.48c-0.37,-0.82 -1.37,-1.09 -2.1,-0.73c-6.12,3.1 -10.96,8.56 -13.15,15.03c-0.27,0.82 0.18,1.73 1,2c0.09,0.09 0.27,0.09 0.46,0.09c0.64,0 1.28,-0.46 1.55,-1.09c1.92,-5.74 6.12,-10.48 11.6,-13.21c0.64,-0.36 1,-1.28 0.64,-2.1z" id="svg_11"/>
   <path d="m57.27,58.72c-0.91,0 -1.64,0.73 -1.64,1.64c0,3.19 -2.65,5.83 -5.84,5.83s-5.84,-2.64 -5.84,-5.83c0,-0.91 -0.73,-1.64 -1.64,-1.64s-1.46,0.64 -1.46,1.55c0,4.92 4.02,9.02 9.04,9.02s9.04,-4.01 9.04,-9.02c0,-0.91 -0.73,-1.55 -1.64,-1.55z" id="svg_12"/>
   <path d="m42.3,48.15c0.91,0 1.64,-0.73 1.64,-1.64c0,-2.91 -2.37,-5.28 -5.3,-5.28s-5.3,2.37 -5.3,5.28c0,0.91 0.73,1.64 1.64,1.64s1.64,-0.73 1.64,-1.64c0,-1.18 0.91,-2.1 2.1,-2.1s2.1,0.91 2.1,2.1c-0.18,0.91 0.55,1.64 1.46,1.64z" id="svg_13"/>
   <path d="m61.2,41.23c-2.92,0 -5.3,2.37 -5.3,5.28c0,0.91 0.73,1.64 1.64,1.64s1.64,-0.73 1.64,-1.64c0,-1.18 0.91,-2.1 2.1,-2.1s2.1,0.91 2.1,2.1c0,0.91 0.73,1.64 1.64,1.64s1.64,-0.73 1.64,-1.64c-0.18,-2.91 -2.56,-5.28 -5.48,-5.28z" id="svg_14"/>
  </g>
 </g>
</svg>